<svg xmlns="http://www.w3.org/2000/svg" width="888" height="200" viewBox="0 0 888 200">
  <path fill="none" d="M323.22 144.596h241.559v34.537H323.22z"/>
  <path fill="#88C0D0" d="M325.65 144.598H327l21.959 31.004h.09v-31.004h.9v32.129h-1.35l-21.959-31.004h-.09v31.004h-.9v-32.129zm38.43 8.459c6.75 0 10.395 5.805 10.395 12.105 0 6.344-3.645 12.104-10.44 12.104-6.75 0-10.395-5.76-10.395-12.104 0-6.301 3.645-12.105 10.44-12.105zm0 23.308c6.165 0 9.495-5.354 9.495-11.203 0-5.76-3.33-11.205-9.495-11.205-6.255 0-9.54 5.445-9.54 11.205 0 5.85 3.285 11.203 9.54 11.203zm15.03.362h-.9v-23.129h.9v5.715h.09c.855-3.42 3.555-6.436 9.09-6.256v.9c-6.345-.314-9.18 4.635-9.18 9.674v13.096zm28.753-32.129h.9v32.129h-.9v-6.48h-.09c-1.17 4.051-4.545 7.02-9.27 7.02-6.12 0-9.855-5.084-9.855-12.059 0-6.48 3.465-12.15 9.855-12.15 4.905 0 8.189 2.836 9.27 7.02h.09v-15.48zm-9.359 9.359c-6.345 0-8.955 5.895-8.955 11.25 0 5.939 2.97 11.158 8.955 11.158 5.939 0 9.359-5.174 9.359-11.158 0-7.154-3.735-11.25-9.359-11.25z"/>
  <path fill="#2E3440" d="M423.838 144.598h25.469v2.609h-11.205v29.52h-3.06v-29.52h-11.205v-2.609zm24.615 21.283c.045 4.141 2.205 9.135 7.65 9.135 4.14 0 6.39-2.43 7.29-5.939h2.834c-1.215 5.266-4.274 8.324-10.124 8.324-7.38 0-10.484-5.67-10.484-12.283 0-6.121 3.104-12.285 10.484-12.285 7.47 0 10.439 6.525 10.215 13.049h-17.865zm15.03-2.385c-.136-4.273-2.79-8.279-7.38-8.279-4.635 0-7.199 4.051-7.65 8.279h15.03zm6.661-9.988h2.609v5.443h.09c1.44-3.734 4.59-5.939 8.775-5.76v2.836c-5.13-.27-8.64 3.51-8.64 8.324v12.375h-2.835v-23.218zm14.174 0h2.609v3.914h.135c1.485-2.789 3.915-4.59 7.605-4.59 3.06 0 5.805 1.484 6.659 4.545 1.396-3.061 4.32-4.545 7.38-4.545 5.085 0 7.694 2.654 7.694 8.145v15.75h-2.835v-15.615c0-3.824-1.439-5.895-5.489-5.895-4.905 0-6.3 4.051-6.3 8.369v13.141h-2.835v-15.75c.045-3.15-1.26-5.76-4.859-5.76-4.905 0-6.885 3.689-6.93 8.551v12.959h-2.835v-23.219zm37.53-8.91h2.835v4.545h-2.835v-4.545zm0 8.91h2.835v23.219h-2.835v-23.219zm12.779 0h4.726v2.385h-4.726v15.658c0 1.846.271 2.926 2.295 3.061.811 0 1.62-.045 2.431-.135v2.43c-.855 0-1.665.09-2.521.09-3.779 0-5.084-1.26-5.039-5.221v-15.883h-4.05v-2.385h4.05v-6.975h2.834v6.975zm10.485 12.373c.045 4.141 2.204 9.135 7.649 9.135 4.14 0 6.39-2.43 7.29-5.939h2.834c-1.215 5.266-4.274 8.324-10.124 8.324-7.38 0-10.484-5.67-10.484-12.283 0-6.121 3.104-12.285 10.484-12.285 7.47 0 10.439 6.525 10.215 13.049h-17.864zm15.03-2.385c-.136-4.273-2.79-8.279-7.38-8.279-4.635 0-7.2 4.051-7.649 8.279h15.029z"/>
  <g fill="#2E3440">
    <path d="M466.561 126.596l-43.393-55.545V55.64l48.092 62.171h25.844V30.266h-43.465l-9.397-9.399H506.5v105.729z"/>
    <path d="M421.439 20.867l43.395 55.541v15.41L416.741 29.65h-25.843v87.545h43.464l9.4 9.401H381.5V20.867z"/>
  </g>
</svg>
